# xmcd
#
# Track frame offsets:
# 150
# 18981
# 34762
# 55811
# 71098
# 86650
# 103162
# 122026
# 140728
# 156076
# 167717
# 185373
#
# Disc length: 2687 seconds
#
# Revision: 0
# Processed by: cddbd v1.5.2PL0 Copyright (c) Steve Scherf et al.
# Submitted via: Axialis_AX_CDPlayer 2.6
#
DISCID=a40a7d0c
DTITLE=Chris Knight - Trailer II
DYEAR=1900
DGENRE=
TTITLE0=Old Man
TTITLE1=It Ain't Easy Being Me
TTITLE2=Highway Junkie
TTITLE3=Summer Of '75
TTITLE4=Bring The Harvest Home
TTITLE5=I'll Be There
TTITLE6=Send A Boat
TTITLE7=The River's Own
TTITLE8=Love And A .45
TTITLE9=Speeding Train
TTITLE10=Blame Me
TTITLE11=Till My Leaving's Through
EXTD=www.chrisknight.net
EXTT0=
EXTT1=
EXTT2=
EXTT3=
EXTT4=
EXTT5=
EXTT6=
EXTT7=
EXTT8=
EXTT9=
EXTT10=
EXTT11=
PLAYORDER=
